<svg xmlns="http://www.w3.org/2000/svg" xmlns:xlink="http://www.w3.org/1999/xlink" width="1024" zoomAndPan="magnify" viewBox="0 0 768 767.999994" height="1024" preserveAspectRatio="xMidYMid meet" version="1.0"><defs><clipPath id="a9fa0f33ce"><path d="M 27.75 27.75 L 740.25 27.75 L 740.25 740.25 L 27.75 740.25 Z M 27.75 27.75 " clip-rule="nonzero"/></clipPath></defs><g clip-path="url(#a9fa0f33ce)"><path fill="#ba1222" d="M 384 27.75 C 187.558594 27.75 27.75 187.558594 27.75 384 C 27.75 580.441406 187.558594 740.25 384 740.25 C 580.441406 740.25 740.25 580.441406 740.25 384 C 740.25 187.558594 580.441406 27.75 384 27.75 Z M 384 671.296875 C 225.582031 671.296875 96.703125 542.417969 96.703125 384 C 96.703125 225.582031 225.582031 96.703125 384 96.703125 C 542.417969 96.703125 671.296875 225.582031 671.296875 384 C 671.296875 542.417969 542.417969 671.296875 384 671.296875 Z M 384 671.296875 " fill-opacity="1" fill-rule="nonzero"/></g><path fill="#ba1222" d="M 517.59375 349.523438 L 418.476562 349.523438 L 418.476562 250.40625 C 418.476562 231.363281 403.042969 215.929688 384 215.929688 C 364.957031 215.929688 349.523438 231.363281 349.523438 250.40625 L 349.523438 349.523438 L 250.40625 349.523438 C 231.363281 349.523438 215.929688 364.957031 215.929688 384 C 215.929688 403.042969 231.363281 418.476562 250.40625 418.476562 L 349.523438 418.476562 L 349.523438 517.59375 C 349.523438 536.628906 364.957031 552.070312 384 552.070312 C 403.042969 552.070312 418.476562 536.628906 418.476562 517.59375 L 418.476562 418.476562 L 517.59375 418.476562 C 536.636719 418.476562 552.070312 403.042969 552.070312 384 C 552.070312 364.957031 536.636719 349.523438 517.59375 349.523438 Z M 517.59375 349.523438 " fill-opacity="1" fill-rule="nonzero"/></svg>