<svg xmlns="http://www.w3.org/2000/svg" xmlns:xlink="http://www.w3.org/1999/xlink" width="1024" zoomAndPan="magnify" viewBox="0 0 768 767.999994" height="1024" preserveAspectRatio="xMidYMid meet" version="1.0"><defs><clipPath id="f1a0e2e72f"><path d="M 27.75 27.75 L 740.25 27.75 L 740.25 740.25 L 27.75 740.25 Z M 27.75 27.75 " clip-rule="nonzero"/></clipPath></defs><g clip-path="url(#f1a0e2e72f)"><path fill="#ba1222" d="M 384 27.75 C 187.707031 27.75 27.75 187.707031 27.75 384 C 27.75 580.292969 187.707031 740.25 384 740.25 C 580.292969 740.25 740.25 580.292969 740.25 384 C 740.25 187.707031 580.292969 27.75 384 27.75 Z M 526.5 410.71875 L 410.71875 410.71875 L 410.71875 526.5 C 410.71875 541.105469 398.605469 553.21875 384 553.21875 C 369.394531 553.21875 357.28125 541.105469 357.28125 526.5 L 357.28125 410.71875 L 241.5 410.71875 C 226.894531 410.71875 214.78125 398.605469 214.78125 384 C 214.78125 369.394531 226.894531 357.28125 241.5 357.28125 L 357.28125 357.28125 L 357.28125 241.5 C 357.28125 226.894531 369.394531 214.78125 384 214.78125 C 398.605469 214.78125 410.71875 226.894531 410.71875 241.5 L 410.71875 357.28125 L 526.5 357.28125 C 541.105469 357.28125 553.21875 369.394531 553.21875 384 C 553.21875 398.605469 541.105469 410.71875 526.5 410.71875 Z M 526.5 410.71875 " fill-opacity="1" fill-rule="nonzero"/></g></svg>