<svg xmlns="http://www.w3.org/2000/svg" xmlns:xlink="http://www.w3.org/1999/xlink" width="1024" zoomAndPan="magnify" viewBox="0 0 768 767.999994" height="1024" preserveAspectRatio="xMidYMid meet" version="1.0"><path fill="#ba1222" d="M 620.3125 293.753906 C 600.421875 271.785156 570.4375 259.019531 528.875 254.566406 L 528.875 232.003906 C 528.875 191.332031 511.65625 152.144531 481.375 124.832031 C 450.796875 96.925781 411.015625 83.863281 369.75 87.722656 C 298.796875 94.550781 239.125 163.128906 239.125 237.347656 L 239.125 254.566406 C 197.5625 259.019531 167.578125 271.785156 147.6875 293.753906 C 118.890625 325.816406 119.78125 368.566406 123.046875 398.253906 L 143.828125 563.613281 C 150.0625 621.503906 173.515625 680.878906 301.171875 680.878906 L 466.828125 680.878906 C 594.484375 680.878906 617.9375 621.503906 624.171875 563.910156 L 644.953125 397.957031 C 648.21875 368.566406 648.8125 325.816406 620.3125 293.753906 Z M 373.90625 128.988281 C 403.59375 126.316406 431.796875 135.519531 453.765625 155.410156 C 475.4375 175.003906 487.609375 202.910156 487.609375 232.003906 L 487.609375 252.785156 L 280.390625 252.785156 L 280.390625 237.347656 C 280.390625 184.503906 324.03125 133.738281 373.90625 128.988281 Z M 277.71875 418.144531 L 277.421875 418.144531 C 261.09375 418.144531 247.734375 404.785156 247.734375 388.457031 C 247.734375 372.128906 261.09375 358.769531 277.421875 358.769531 C 294.046875 358.769531 307.40625 372.128906 307.40625 388.457031 C 307.40625 404.785156 294.046875 418.144531 277.71875 418.144531 Z M 485.53125 418.144531 L 485.234375 418.144531 C 468.90625 418.144531 455.546875 404.785156 455.546875 388.457031 C 455.546875 372.128906 468.90625 358.769531 485.234375 358.769531 C 501.859375 358.769531 515.21875 372.128906 515.21875 388.457031 C 515.21875 404.785156 501.859375 418.144531 485.53125 418.144531 Z M 485.53125 418.144531 " fill-opacity="1" fill-rule="nonzero"/></svg>