<svg xmlns="http://www.w3.org/2000/svg" xmlns:xlink="http://www.w3.org/1999/xlink" width="1024" zoomAndPan="magnify" viewBox="0 0 768 767.999994" height="1024" preserveAspectRatio="xMidYMid meet" version="1.0"><defs><clipPath id="52ed596fa4"><path d="M 34.777344 34.777344 L 747.277344 34.777344 L 747.277344 747.277344 L 34.777344 747.277344 Z M 34.777344 34.777344 " clip-rule="nonzero"/></clipPath></defs><g clip-path="url(#52ed596fa4)"><path fill="#ba1222" d="M 391.027344 34.777344 C 194.199219 34.777344 34.777344 194.199219 34.777344 391.027344 C 34.777344 587.855469 194.199219 747.277344 391.027344 747.277344 C 587.855469 747.277344 747.277344 587.855469 747.277344 391.027344 C 747.277344 194.199219 587.855469 34.777344 391.027344 34.777344 Z M 391.027344 676.027344 C 233.566406 676.027344 106.027344 548.488281 106.027344 391.027344 C 106.027344 233.566406 233.566406 106.027344 391.027344 106.027344 C 548.488281 106.027344 676.027344 233.566406 676.027344 391.027344 C 676.027344 548.488281 548.488281 676.027344 391.027344 676.027344 Z M 391.027344 676.027344 " fill-opacity="1" fill-rule="nonzero"/></g></svg>