<svg xmlns="http://www.w3.org/2000/svg" xmlns:xlink="http://www.w3.org/1999/xlink" width="1024" zoomAndPan="magnify" viewBox="0 0 768 767.999994" height="1024" preserveAspectRatio="xMidYMid meet" version="1.0"><defs><clipPath id="e057686bcd"><path d="M 27.75 27.75 L 740.25 27.75 L 740.25 740.25 L 27.75 740.25 Z M 27.75 27.75 " clip-rule="nonzero"/></clipPath></defs><g clip-path="url(#e057686bcd)"><path fill="#ba1222" d="M 740.25 384 C 740.25 389.832031 740.105469 395.65625 739.820312 401.480469 C 739.535156 407.304688 739.105469 413.117188 738.535156 418.917969 C 737.964844 424.722656 737.25 430.503906 736.394531 436.273438 C 735.539062 442.039062 734.542969 447.78125 733.40625 453.5 C 732.265625 459.21875 730.988281 464.90625 729.574219 470.5625 C 728.15625 476.21875 726.601562 481.835938 724.910156 487.414062 C 723.21875 492.992188 721.390625 498.527344 719.425781 504.015625 C 717.460938 509.507812 715.363281 514.945312 713.132812 520.332031 C 710.902344 525.71875 708.539062 531.046875 706.046875 536.316406 C 703.554688 541.585938 700.933594 546.792969 698.183594 551.933594 C 695.4375 557.078125 692.5625 562.148438 689.566406 567.148438 C 686.566406 572.148438 683.449219 577.074219 680.210938 581.921875 C 676.972656 586.769531 673.617188 591.535156 670.140625 596.21875 C 666.667969 600.902344 663.082031 605.496094 659.386719 610.003906 C 655.6875 614.507812 651.878906 618.921875 647.964844 623.242188 C 644.046875 627.5625 640.03125 631.785156 635.90625 635.90625 C 631.785156 640.03125 627.5625 644.046875 623.242188 647.964844 C 618.921875 651.878906 614.507812 655.6875 610.003906 659.386719 C 605.496094 663.082031 600.902344 666.667969 596.21875 670.140625 C 591.535156 673.617188 586.769531 676.972656 581.921875 680.210938 C 577.074219 683.449219 572.148438 686.566406 567.148438 689.566406 C 562.148438 692.5625 557.078125 695.4375 551.933594 698.183594 C 546.792969 700.933594 541.585938 703.554688 536.316406 706.046875 C 531.046875 708.539062 525.71875 710.902344 520.332031 713.132812 C 514.945312 715.363281 509.507812 717.460938 504.015625 719.425781 C 498.527344 721.390625 492.992188 723.21875 487.414062 724.910156 C 481.835938 726.601562 476.21875 728.15625 470.5625 729.574219 C 464.90625 730.988281 459.21875 732.265625 453.5 733.40625 C 447.78125 734.542969 442.039062 735.539062 436.273438 736.394531 C 430.503906 737.25 424.722656 737.964844 418.917969 738.535156 C 413.117188 739.105469 407.304688 739.535156 401.480469 739.820312 C 395.65625 740.105469 389.832031 740.25 384 740.25 C 378.167969 740.25 372.34375 740.105469 366.519531 739.820312 C 360.695312 739.535156 354.882812 739.105469 349.082031 738.535156 C 343.277344 737.964844 337.496094 737.25 331.726562 736.394531 C 325.960938 735.539062 320.21875 734.542969 314.5 733.40625 C 308.78125 732.265625 303.09375 730.988281 297.4375 729.574219 C 291.78125 728.15625 286.164062 726.601562 280.585938 724.910156 C 275.007812 723.21875 269.472656 721.390625 263.984375 719.425781 C 258.492188 717.460938 253.054688 715.363281 247.667969 713.132812 C 242.28125 710.902344 236.953125 708.539062 231.683594 706.046875 C 226.414062 703.554688 221.207031 700.933594 216.066406 698.183594 C 210.921875 695.4375 205.851562 692.5625 200.851562 689.566406 C 195.851562 686.566406 190.925781 683.449219 186.078125 680.210938 C 181.230469 676.972656 176.464844 673.617188 171.78125 670.140625 C 167.097656 666.667969 162.503906 663.082031 157.996094 659.386719 C 153.492188 655.6875 149.078125 651.878906 144.757812 647.964844 C 140.4375 644.046875 136.214844 640.03125 132.09375 635.90625 C 127.96875 631.785156 123.953125 627.5625 120.035156 623.242188 C 116.121094 618.921875 112.3125 614.507812 108.613281 610.003906 C 104.917969 605.496094 101.332031 600.902344 97.855469 596.21875 C 94.382812 591.535156 91.027344 586.769531 87.789062 581.921875 C 84.550781 577.074219 81.429688 572.148438 78.433594 567.148438 C 75.4375 562.148438 72.5625 557.078125 69.816406 551.933594 C 67.066406 546.792969 64.445312 541.585938 61.953125 536.316406 C 59.460938 531.046875 57.097656 525.71875 54.867188 520.332031 C 52.636719 514.945312 50.539062 509.507812 48.574219 504.015625 C 46.609375 498.527344 44.78125 492.992188 43.089844 487.414062 C 41.398438 481.835938 39.84375 476.21875 38.425781 470.5625 C 37.007812 464.90625 35.734375 459.21875 34.59375 453.5 C 33.457031 447.78125 32.460938 442.039062 31.605469 436.273438 C 30.75 430.503906 30.035156 424.722656 29.464844 418.917969 C 28.894531 413.117188 28.464844 407.304688 28.179688 401.480469 C 27.894531 395.65625 27.75 389.832031 27.75 384 C 27.75 378.167969 27.894531 372.34375 28.179688 366.519531 C 28.464844 360.695312 28.894531 354.882812 29.464844 349.082031 C 30.035156 343.277344 30.75 337.496094 31.605469 331.726562 C 32.460938 325.960938 33.457031 320.21875 34.59375 314.5 C 35.734375 308.78125 37.007812 303.09375 38.425781 297.4375 C 39.84375 291.78125 41.398438 286.164062 43.089844 280.585938 C 44.78125 275.007812 46.609375 269.472656 48.574219 263.984375 C 50.539062 258.492188 52.636719 253.054688 54.867188 247.667969 C 57.097656 242.28125 59.460938 236.953125 61.953125 231.683594 C 64.445312 226.414062 67.066406 221.207031 69.816406 216.066406 C 72.5625 210.921875 75.4375 205.851562 78.433594 200.851562 C 81.429688 195.851562 84.550781 190.925781 87.789062 186.078125 C 91.027344 181.230469 94.382812 176.464844 97.855469 171.78125 C 101.332031 167.097656 104.917969 162.503906 108.613281 157.996094 C 112.3125 153.492188 116.121094 149.078125 120.035156 144.757812 C 123.953125 140.4375 127.96875 136.214844 132.09375 132.09375 C 136.214844 127.96875 140.4375 123.953125 144.757812 120.035156 C 149.078125 116.121094 153.492188 112.3125 157.996094 108.613281 C 162.503906 104.917969 167.097656 101.332031 171.78125 97.855469 C 176.464844 94.382812 181.230469 91.027344 186.078125 87.789062 C 190.925781 84.550781 195.851562 81.429688 200.851562 78.433594 C 205.851562 75.4375 210.921875 72.5625 216.066406 69.816406 C 221.207031 67.066406 226.414062 64.445312 231.683594 61.953125 C 236.953125 59.460938 242.28125 57.097656 247.667969 54.867188 C 253.054688 52.636719 258.492188 50.539062 263.984375 48.574219 C 269.472656 46.609375 275.007812 44.78125 280.585938 43.089844 C 286.164062 41.398438 291.78125 39.84375 297.4375 38.425781 C 303.09375 37.007812 308.78125 35.734375 314.5 34.59375 C 320.21875 33.457031 325.960938 32.460938 331.726562 31.605469 C 337.496094 30.75 343.277344 30.035156 349.082031 29.464844 C 354.882812 28.894531 360.695312 28.464844 366.519531 28.179688 C 372.34375 27.894531 378.167969 27.75 384 27.75 C 389.832031 27.75 395.65625 27.894531 401.480469 28.179688 C 407.304688 28.464844 413.117188 28.894531 418.917969 29.464844 C 424.722656 30.035156 430.503906 30.75 436.273438 31.605469 C 442.039062 32.460938 447.78125 33.457031 453.5 34.59375 C 459.21875 35.734375 464.90625 37.007812 470.5625 38.425781 C 476.21875 39.84375 481.835938 41.398438 487.414062 43.089844 C 492.992188 44.78125 498.527344 46.609375 504.015625 48.574219 C 509.507812 50.539062 514.945312 52.636719 520.332031 54.867188 C 525.71875 57.097656 531.046875 59.460938 536.316406 61.953125 C 541.585938 64.445312 546.792969 67.066406 551.933594 69.816406 C 557.078125 72.5625 562.148438 75.4375 567.148438 78.433594 C 572.148438 81.429688 577.074219 84.550781 581.921875 87.789062 C 586.769531 91.027344 591.535156 94.382812 596.21875 97.855469 C 600.902344 101.332031 605.496094 104.917969 610.003906 108.613281 C 614.507812 112.3125 618.921875 116.121094 623.242188 120.035156 C 627.5625 123.953125 631.785156 127.96875 635.90625 132.09375 C 640.03125 136.214844 644.046875 140.4375 647.964844 144.757812 C 651.878906 149.078125 655.6875 153.492188 659.386719 157.996094 C 663.082031 162.503906 666.667969 167.097656 670.140625 171.78125 C 673.617188 176.464844 676.972656 181.230469 680.210938 186.078125 C 683.449219 190.925781 686.566406 195.851562 689.566406 200.851562 C 692.5625 205.851562 695.4375 210.921875 698.183594 216.066406 C 700.933594 221.207031 703.554688 226.414062 706.046875 231.683594 C 708.539062 236.953125 710.902344 242.28125 713.132812 247.667969 C 715.363281 253.054688 717.460938 258.492188 719.425781 263.984375 C 721.390625 269.472656 723.21875 275.007812 724.910156 280.585938 C 726.601562 286.164062 728.15625 291.78125 729.574219 297.4375 C 730.988281 303.09375 732.265625 308.78125 733.40625 314.5 C 734.542969 320.21875 735.539062 325.960938 736.394531 331.726562 C 737.25 337.496094 737.964844 343.277344 738.535156 349.082031 C 739.105469 354.882812 739.535156 360.695312 739.820312 366.519531 C 740.105469 372.34375 740.25 378.167969 740.25 384 Z M 740.25 384 " fill-opacity="1" fill-rule="nonzero"/></g><path stroke-linecap="round" transform="matrix(29.687498, 0, 0, 29.687498, 27.750002, 27.750019)" fill="none" stroke-linejoin="round" d="M 13.620001 7.953289 L 17.666712 12 L 13.620001 16.046579 " stroke="#ffffff" stroke-width="1.5" stroke-opacity="1" stroke-miterlimit="10"/><path stroke-linecap="round" transform="matrix(29.687498, 0, 0, 29.687498, 27.750002, 27.750019)" fill="none" stroke-linejoin="round" d="M 6.33329 12 L 17.553291 12 " stroke="#ffffff" stroke-width="1.5" stroke-opacity="1" stroke-miterlimit="10"/></svg>